<svg width="14" height="13" viewBox="0 0 14 13" fill="none" xmlns="http://www.w3.org/2000/svg">
<g id="Group">
<path id="Vector" d="M6.9237 2.10239C6.79512 2.30537 6.72692 2.53545 6.72587 2.76985C6.72481 3.00425 6.79094 3.23483 6.9177 3.43877C7.04445 3.6427 7.22744 3.81291 7.44854 3.93253C7.66964 4.05216 7.92119 4.11706 8.17826 4.1208H8.91623V4.7936C8.92033 5.02797 8.99152 5.2573 9.12273 5.45888C9.25395 5.66045 9.44064 5.82728 9.66433 5.94284C9.88802 6.0584 10.1409 6.11869 10.398 6.11773C10.6551 6.11677 10.9075 6.05459 11.1302 5.93737L10.9088 6.94657C10.8743 7.10083 10.7815 7.23917 10.6467 7.33752C10.5118 7.43586 10.3434 7.48798 10.1708 7.48481H4.267L4.41459 8.15761H9.65421C10.125 8.15354 10.585 8.28643 10.9674 8.53697C11.3497 8.78752 11.6345 9.14267 11.7803 9.55084C11.9261 9.95901 11.9254 10.3989 11.7783 10.8067C11.6311 11.2145 11.3452 11.5689 10.962 11.8184C10.5789 12.0679 10.1185 12.1995 9.64764 12.1942C9.17682 12.1888 8.72013 12.0468 8.34392 11.7886C7.9677 11.5305 7.69156 11.1697 7.5556 10.7587C7.41964 10.3478 7.43095 9.90795 7.58788 9.50322H5.81674C5.95574 9.87552 5.97241 10.2767 5.8647 10.6576C5.75699 11.0384 5.5296 11.3822 5.21046 11.6468C4.89132 11.9114 4.49435 12.0853 4.06832 12.147C3.64229 12.2087 3.20576 12.1556 2.81238 11.9942C2.41901 11.8328 2.08591 11.5702 1.85403 11.2386C1.62215 10.9069 1.50159 10.5208 1.50716 10.1275C1.51274 9.73426 1.6442 9.35107 1.8854 9.02501C2.1266 8.69895 2.46703 8.44424 2.86485 8.29217L1.3151 1.42959H0.798521C0.602798 1.42959 0.415091 1.3587 0.276694 1.23253C0.138297 1.10635 0.0605469 0.935225 0.0605469 0.756787C0.0605469 0.578348 0.138297 0.407219 0.276694 0.281044C0.415091 0.154869 0.602798 0.0839844 0.798521 0.0839844H1.90548C2.27447 0.0839844 2.56966 0.285825 2.64345 0.622226L2.93864 2.10239H6.9237Z" fill="#CCCCCC"/>
<path id="Vector_2" d="M11.1303 0.756787C11.1303 0.578348 11.0525 0.407219 10.9142 0.281044C10.7758 0.154869 10.588 0.0839844 10.3923 0.0839844C10.1966 0.0839844 10.0089 0.154869 9.8705 0.281044C9.7321 0.407219 9.65435 0.578348 9.65435 0.756787V2.10239H8.1784C7.98268 2.10239 7.79497 2.17328 7.65658 2.29945C7.51818 2.42563 7.44043 2.59676 7.44043 2.77519C7.44043 2.95363 7.51818 3.12476 7.65658 3.25094C7.79497 3.37711 7.98268 3.448 8.1784 3.448H9.65435V4.7936C9.65435 4.97204 9.7321 5.14317 9.8705 5.26934C10.0089 5.39552 10.1966 5.4664 10.3923 5.4664C10.588 5.4664 10.7758 5.39552 10.9142 5.26934C11.0525 5.14317 11.1303 4.97204 11.1303 4.7936V3.448H12.6062C12.802 3.448 12.9897 3.37711 13.1281 3.25094C13.2665 3.12476 13.3442 2.95363 13.3442 2.77519C13.3442 2.59676 13.2665 2.42563 13.1281 2.29945C12.9897 2.17328 12.802 2.10239 12.6062 2.10239H11.1303V0.756787Z" fill="#CCCCCC"/>
</g>
</svg>
