<svg width="25" height="28" viewBox="0 0 25 28" fill="none" xmlns="http://www.w3.org/2000/svg">
<g id="Group 56">
<path id="Vector" d="M22.8925 0H4.89246C4.36202 0 3.85332 0.210714 3.47824 0.585786C3.10317 0.960859 2.89246 1.46957 2.89246 2V6H0.892456V8H2.89246V13H0.892456V15H2.89246V20H0.892456V22H2.89246V26C2.89246 26.5304 3.10317 27.0391 3.47824 27.4142C3.85332 27.7893 4.36202 28 4.89246 28H22.8925C23.4229 28 23.9316 27.7893 24.3067 27.4142C24.6817 27.0391 24.8925 26.5304 24.8925 26V2C24.8925 1.46957 24.6817 0.960859 24.3067 0.585786C23.9316 0.210714 23.4229 0 22.8925 0ZM22.8925 26H4.89246V22H6.89246V20H4.89246V15H6.89246V13H4.89246V8H6.89246V6H4.89246V2H22.8925V26Z" fill="black"/>
<path id="Vector_2" d="M10.8925 6H18.8925V8H10.8925V6ZM10.8925 13H18.8925V15H10.8925V13ZM10.8925 20H18.8925V22H10.8925V20Z" fill="black"/>
</g>
</svg>
