<svg width="27" height="21" viewBox="0 0 27 21" fill="none" xmlns="http://www.w3.org/2000/svg">
<path id="Vector" d="M2.76847 10.8922C1.44334 10.8922 0.359131 9.88133 0.359131 8.6458V3.02975C0.359131 1.79421 1.44334 0.783325 2.76847 0.783325H12.4058C13.731 0.783325 14.8152 1.79421 14.8152 3.02975V8.6458C14.8152 9.88133 13.731 10.8922 12.4058 10.8922H9.9965V14.2619L6.38249 10.8922H2.76847ZM24.4526 17.6315C25.7777 17.6315 26.8619 16.6206 26.8619 15.3851V9.76901C26.8619 8.53348 25.7777 7.52259 24.4526 7.52259H17.2245V8.6458C17.2245 11.1169 15.0561 13.1386 12.4058 13.1386V15.3851C12.4058 16.6206 13.49 17.6315 14.8152 17.6315H17.2245V21.0011L20.8385 17.6315H24.4526Z" fill="#605F5F"/>
</svg>
