<svg width="16" height="13" viewBox="0 0 16 13" fill="none" xmlns="http://www.w3.org/2000/svg">
<path d="M8.21463 10.4797L8.14225 10.5465L8.06262 10.4797C4.62413 7.59829 2.35111 5.69297 2.35111 3.76092C2.35111 2.42385 3.43694 1.42105 4.88473 1.42105C5.99952 1.42105 7.08536 2.08958 7.46903 2.99879H8.81547C9.19913 2.08958 10.285 1.42105 11.3998 1.42105C12.8475 1.42105 13.9334 2.42385 13.9334 3.76092C13.9334 5.69297 11.6604 7.59829 8.21463 10.4797ZM11.3998 0.0839844C10.1402 0.0839844 8.93129 0.625496 8.14225 1.47453C7.3532 0.625496 6.1443 0.0839844 4.88473 0.0839844C2.65514 0.0839844 0.90332 1.69515 0.90332 3.76092C0.90332 6.28128 3.36456 8.34705 7.0926 11.4691L8.14225 12.3516L9.19189 11.4691C12.9199 8.34705 15.3812 6.28128 15.3812 3.76092C15.3812 1.69515 13.6294 0.0839844 11.3998 0.0839844Z" fill="#CCCCCC"/>
</svg>
