<svg width="15" height="17" viewBox="0 0 15 17" fill="none" xmlns="http://www.w3.org/2000/svg">
<path id="Vector" fill-rule="evenodd" clip-rule="evenodd" d="M7.59812 0.870483C9.41744 0.870483 11.1623 1.59321 12.4487 2.87967C13.7352 4.16612 14.4579 5.91093 14.4579 7.73026C14.4579 10.0733 13.1805 11.9909 11.8344 13.3667C11.1618 14.0465 10.428 14.6629 9.64233 15.2082L9.31763 15.4292L9.1652 15.5306L8.87785 15.7135L8.62175 15.8698L8.30468 16.0542C8.08936 16.1768 7.84587 16.2412 7.59812 16.2412C7.35037 16.2412 7.10688 16.1768 6.89156 16.0542L6.57449 15.8698L6.17814 15.6259L6.0318 15.5306L5.7193 15.3225C4.87172 14.7488 4.08215 14.0938 3.36183 13.3667C2.01578 11.9902 0.738342 10.0733 0.738342 7.73026C0.738342 5.91093 1.46107 4.16612 2.74752 2.87967C4.03398 1.59321 5.77879 0.870483 7.59812 0.870483ZM7.59812 2.39488C6.18309 2.39488 4.82601 2.957 3.82543 3.95757C2.82486 4.95815 2.26274 6.31523 2.26274 7.73026C2.26274 9.50008 3.23225 11.0534 4.45101 12.3004C4.97511 12.8308 5.54151 13.3177 6.14461 13.7562L6.49369 14.0047C6.6065 14.0832 6.71473 14.1563 6.81915 14.2242L7.11641 14.4147L7.37784 14.574L7.59812 14.7028L7.94492 14.4978L8.22464 14.3225C8.37327 14.228 8.53333 14.122 8.70254 14.0047L9.05163 13.7562C9.65472 13.3177 10.2211 12.8308 10.7452 12.3004C11.964 11.0542 12.9335 9.50008 12.9335 7.73026C12.9335 6.31523 12.3714 4.95815 11.3708 3.95757C10.3702 2.957 9.01315 2.39488 7.59812 2.39488ZM7.59812 4.68147C8.40671 4.68147 9.18218 5.00268 9.75394 5.57444C10.3257 6.1462 10.6469 6.92167 10.6469 7.73026C10.6469 8.53885 10.3257 9.31432 9.75394 9.88608C9.18218 10.4578 8.40671 10.779 7.59812 10.779C6.78953 10.779 6.01406 10.4578 5.4423 9.88608C4.87054 9.31432 4.54933 8.53885 4.54933 7.73026C4.54933 6.92167 4.87054 6.1462 5.4423 5.57444C6.01406 5.00268 6.78953 4.68147 7.59812 4.68147ZM7.59812 6.20586C7.19382 6.20586 6.80609 6.36647 6.52021 6.65235C6.23433 6.93823 6.07372 7.32596 6.07372 7.73026C6.07372 8.13455 6.23433 8.52229 6.52021 8.80817C6.80609 9.09405 7.19382 9.25465 7.59812 9.25465C8.00241 9.25465 8.39015 9.09405 8.67603 8.80817C8.96191 8.52229 9.12251 8.13455 9.12251 7.73026C9.12251 7.32596 8.96191 6.93823 8.67603 6.65235C8.39015 6.36647 8.00241 6.20586 7.59812 6.20586Z" fill="#6B7280"/>
</svg>
