<svg width="31" height="31" viewBox="0 0 31 31" fill="none" xmlns="http://www.w3.org/2000/svg">
<g id="Star Icon">
<path id="Rating/Star Fill" d="M14.8998 1.92979C15.0706 1.51914 15.6523 1.51914 15.8231 1.92979L19.2117 10.077C19.2837 10.2501 19.4465 10.3684 19.6334 10.3834L28.429 11.0885C28.8723 11.124 29.0521 11.6773 28.7143 11.9666L22.013 17.707C21.8706 17.829 21.8084 18.0204 21.8519 18.2028L23.8993 26.7857C24.0025 27.2184 23.5319 27.5603 23.1523 27.3285L15.6221 22.729C15.4621 22.6313 15.2608 22.6313 15.1008 22.729L7.57058 27.3285C7.19103 27.5603 6.72041 27.2184 6.8236 26.7857L8.87096 18.2028C8.91446 18.0204 8.85228 17.829 8.70988 17.707L2.00858 11.9666C1.67081 11.6773 1.85057 11.124 2.2939 11.0885L11.0895 10.3834C11.2764 10.3684 11.4392 10.2501 11.5112 10.077L14.8998 1.92979Z" fill="#FACC15"/>
</g>
</svg>
