<svg width="17" height="22" viewBox="0 0 17 22" fill="none" xmlns="http://www.w3.org/2000/svg">
<path id="Vector" d="M12.3481 4.76807C12.3481 5.76263 11.953 6.71646 11.2498 7.41972C10.5465 8.12298 9.59268 8.51807 8.59812 8.51807C7.60356 8.51807 6.64973 8.12298 5.94647 7.41972C5.24321 6.71646 4.84812 5.76263 4.84812 4.76807C4.84812 3.7735 5.24321 2.81968 5.94647 2.11642C6.64973 1.41315 7.60356 1.01807 8.59812 1.01807C9.59268 1.01807 10.5465 1.41315 11.2498 2.11642C11.953 2.81968 12.3481 3.7735 12.3481 4.76807ZM1.09912 18.8861C1.13126 16.9184 1.93546 15.0422 3.3383 13.6621C4.74114 12.282 6.63021 11.5085 8.59812 11.5085C10.566 11.5085 12.4551 12.282 13.8579 13.6621C15.2608 15.0422 16.065 16.9184 16.0971 18.8861C13.7445 19.9648 11.1863 20.5216 8.59812 20.5181C5.92212 20.5181 3.38212 19.9341 1.09912 18.8861Z" stroke="#6B7280" stroke-width="1.5" stroke-linecap="round" stroke-linejoin="round"/>
</svg>
