<svg width="31" height="30" viewBox="0 0 31 30" fill="none" xmlns="http://www.w3.org/2000/svg">
<rect x="1.5957" y="0.75" width="28.5" height="28.5" rx="14.25" fill="#141718"/>
<rect x="1.5957" y="0.75" width="28.5" height="28.5" rx="14.25" stroke="white" stroke-width="1.5"/>
<g clip-path="url(#clip0_479_789)">
<path d="M12.0963 10.7226C11.9431 10.9524 12.0052 11.2628 12.2349 11.416C12.4647 11.5692 12.7751 11.5071 12.9283 11.2774L12.0963 10.7226ZM13.4498 9.59373L13.8658 9.87108V9.87108L13.4498 9.59373ZM18.2414 9.59373L18.6575 9.31638L18.2414 9.59373ZM18.7629 11.2774C18.9161 11.5071 19.2265 11.5692 19.4563 11.416C19.6861 11.2628 19.7482 10.9524 19.595 10.7226L18.7629 11.2774ZM17.3456 16C17.3456 16.8284 16.674 17.5 15.8456 17.5V18.5C17.2263 18.5 18.3456 17.3807 18.3456 16H17.3456ZM15.8456 17.5C15.0172 17.5 14.3456 16.8284 14.3456 16H13.3456C13.3456 17.3807 14.4649 18.5 15.8456 18.5V17.5ZM14.3456 16C14.3456 15.1716 15.0172 14.5 15.8456 14.5V13.5C14.4649 13.5 13.3456 14.6193 13.3456 16H14.3456ZM15.8456 14.5C16.674 14.5 17.3456 15.1716 17.3456 16H18.3456C18.3456 14.6193 17.2263 13.5 15.8456 13.5V14.5ZM12.9283 11.2774L13.8658 9.87108L13.0338 9.31638L12.0963 10.7226L12.9283 11.2774ZM14.5592 9.5H17.132V8.5H14.5592V9.5ZM17.8254 9.87108L18.7629 11.2774L19.595 10.7226L18.6575 9.31638L17.8254 9.87108ZM17.132 9.5C17.4107 9.5 17.6709 9.63925 17.8254 9.87108L18.6575 9.31638C18.3174 8.80635 17.745 8.5 17.132 8.5V9.5ZM13.8658 9.87108C14.0204 9.63925 14.2806 9.5 14.5592 9.5V8.5C13.9462 8.5 13.3738 8.80635 13.0338 9.31638L13.8658 9.87108ZM11.8456 11.5H19.8456V10.5H11.8456V11.5ZM22.0123 13.6667V18.3333H23.0123V13.6667H22.0123ZM19.8456 20.5H11.8456V21.5H19.8456V20.5ZM9.67896 18.3333V13.6667H8.67896V18.3333H9.67896ZM11.8456 20.5C10.649 20.5 9.67896 19.53 9.67896 18.3333H8.67896C8.67896 20.0822 10.0967 21.5 11.8456 21.5V20.5ZM22.0123 18.3333C22.0123 19.53 21.0422 20.5 19.8456 20.5V21.5C21.5945 21.5 23.0123 20.0822 23.0123 18.3333H22.0123ZM19.8456 11.5C21.0422 11.5 22.0123 12.47 22.0123 13.6667H23.0123C23.0123 11.9178 21.5945 10.5 19.8456 10.5V11.5ZM11.8456 10.5C10.0967 10.5 8.67896 11.9178 8.67896 13.6667H9.67896C9.67896 12.47 10.649 11.5 11.8456 11.5V10.5Z" fill="#FEFEFE"/>
</g>
<defs>
<clipPath id="clip0_479_789">
<rect width="16" height="16" fill="white" transform="translate(7.8457 7)"/>
</clipPath>
</defs>
</svg>
