<svg width="16" height="14" viewBox="0 0 16 14" fill="none" xmlns="http://www.w3.org/2000/svg">
<path d="M8.4207 11.7812L8.3457 11.8562L8.2632 11.7812C4.7007 8.54865 2.3457 6.41115 2.3457 4.24365C2.3457 2.74365 3.4707 1.61865 4.9707 1.61865C6.1257 1.61865 7.2507 2.36865 7.6482 3.38865H9.0432C9.4407 2.36865 10.5657 1.61865 11.7207 1.61865C13.2207 1.61865 14.3457 2.74365 14.3457 4.24365C14.3457 6.41115 11.9907 8.54865 8.4207 11.7812ZM11.7207 0.118652C10.4157 0.118652 9.1632 0.726152 8.3457 1.67865C7.5282 0.726152 6.2757 0.118652 4.9707 0.118652C2.6607 0.118652 0.845703 1.92615 0.845703 4.24365C0.845703 7.07115 3.3957 9.38865 7.2582 12.8912L8.3457 13.8812L9.4332 12.8912C13.2957 9.38865 15.8457 7.07115 15.8457 4.24365C15.8457 1.92615 14.0307 0.118652 11.7207 0.118652Z" fill="black"/>
</svg>
