<svg width="16" height="16" viewBox="0 0 16 16" fill="none" xmlns="http://www.w3.org/2000/svg">
<path d="M8.3457 1.92855C6.79861 1.92855 5.31488 2.42021 4.22091 3.29538C3.12695 4.17055 2.51237 5.35754 2.51237 6.59521C2.51237 8.50321 3.99737 10.3439 5.62737 11.7699C6.46127 12.4959 7.37064 13.1641 8.3457 13.7672C9.32075 13.1646 10.2301 12.4969 11.064 11.7712C12.694 10.3439 14.179 8.50388 14.179 6.59521C14.179 5.35754 13.5645 4.17055 12.4705 3.29538C11.3765 2.42021 9.8928 1.92855 8.3457 1.92855ZM8.3457 15.4045L7.8732 15.1445L7.8707 15.1432L7.8657 15.1399L7.84904 15.1305L7.78654 15.0952C7.44148 14.8945 7.1041 14.6856 6.77487 14.4685C5.93101 13.914 5.13658 13.313 4.39737 12.6699C2.69404 11.1792 0.845703 9.01988 0.845703 6.59521C0.845703 5.00392 1.63588 3.47779 3.0424 2.35257C4.44893 1.22736 6.35658 0.595215 8.3457 0.595215C10.3348 0.595215 12.2425 1.22736 13.649 2.35257C15.0555 3.47779 15.8457 5.00392 15.8457 6.59521C15.8457 9.01988 13.9974 11.1799 12.294 12.6699C11.3289 13.5097 10.2701 14.2773 9.1307 14.9632C9.03576 15.02 8.93992 15.0757 8.8432 15.1305L8.8257 15.1399L8.8207 15.1432L8.81904 15.1439L8.3457 15.4045ZM8.3457 5.26188C7.90368 5.26188 7.47975 5.40236 7.16719 5.65241C6.85463 5.90245 6.67904 6.24159 6.67904 6.59521C6.67904 6.94884 6.85463 7.28797 7.16719 7.53802C7.47975 7.78807 7.90368 7.92855 8.3457 7.92855C8.78773 7.92855 9.21165 7.78807 9.52421 7.53802C9.83678 7.28797 10.0124 6.94884 10.0124 6.59521C10.0124 6.24159 9.83678 5.90245 9.52421 5.65241C9.21165 5.40236 8.78773 5.26188 8.3457 5.26188ZM5.01237 6.59521C5.01237 5.88797 5.36356 5.20969 5.98868 4.7096C6.6138 4.2095 7.46165 3.92855 8.3457 3.92855C9.22976 3.92855 10.0776 4.2095 10.7027 4.7096C11.3278 5.20969 11.679 5.88797 11.679 6.59521C11.679 7.30246 11.3278 7.98074 10.7027 8.48083C10.0776 8.98093 9.22976 9.26188 8.3457 9.26188C7.46165 9.26188 6.6138 8.98093 5.98868 8.48083C5.36356 7.98074 5.01237 7.30246 5.01237 6.59521Z" fill="black"/>
</svg>
