<svg width="16" height="18" viewBox="0 0 16 18" fill="none" xmlns="http://www.w3.org/2000/svg">
<path d="M2.46732 0.666504H9.76457C10.1947 0.666504 10.6071 0.842099 10.9112 1.15466C11.2153 1.46722 11.3862 1.89114 11.3862 2.33317V3.99984H9.76457V2.33317H2.46732V15.6665H9.76457V13.9998H11.3862V15.6665C11.3862 16.1085 11.2153 16.5325 10.9112 16.845C10.6071 17.1576 10.1947 17.3332 9.76457 17.3332H2.46732C2.03724 17.3332 1.62477 17.1576 1.32066 16.845C1.01655 16.5325 0.845703 16.1085 0.845703 15.6665V2.33317C0.845703 1.89114 1.01655 1.46722 1.32066 1.15466C1.62477 0.842099 2.03724 0.666504 2.46732 0.666504Z" fill="black"/>
<path d="M10.6485 11.9918L11.7918 13.1668L15.8458 9.00016L11.7918 4.8335L10.6485 6.0085L12.7404 8.16683H4.8999V9.8335H12.7404L10.6485 11.9918Z" fill="black"/>
</svg>
