<svg width="27" height="23" viewBox="0 0 27 23" fill="none" xmlns="http://www.w3.org/2000/svg">
<path d="M16.7674 18.7754C16.7674 19.5711 16.4514 20.3341 15.8888 20.8967C15.3262 21.4593 14.5631 21.7754 13.7674 21.7754C12.9718 21.7754 12.2087 21.4593 11.6461 20.8967C11.0835 20.3341 10.7674 19.5711 10.7674 18.7754M14.4884 4.77841L13.0224 4.77541C9.67844 4.76741 6.77544 7.48441 6.75244 10.7754V14.5654C6.75244 15.3554 6.65244 16.1264 6.22144 16.7834L5.93444 17.2214C5.49744 17.8854 5.96744 18.7754 6.75244 18.7754H20.7824C21.5674 18.7754 22.0364 17.8854 21.6004 17.2214L21.3134 16.7834C20.8834 16.1264 20.7824 15.3544 20.7824 14.5644V10.7764C20.7424 7.48441 17.8324 4.78641 14.4884 4.77841Z" stroke="black" stroke-width="2" stroke-linecap="round" stroke-linejoin="round"/>
<path d="M13.7673 1.77539C14.2978 1.77539 14.8065 1.9861 15.1815 2.36118C15.5566 2.73625 15.7673 3.24496 15.7673 3.77539V4.77539H11.7673V3.77539C11.7673 3.24496 11.978 2.73625 12.3531 2.36118C12.7282 1.9861 13.2369 1.77539 13.7673 1.77539Z" stroke="black" stroke-width="2" stroke-linecap="round" stroke-linejoin="round"/>
</svg>
